<svg width="800" height="600" xmlns="http://www.w3.org/2000/svg">
 <g>
  <title>Layer 1</title>
  <g stroke-width="0" id="svg_1">
   <path fill="#00007f" id="svg_2" d="m427.412,241.862a12.814,12.814 0 0 0 -10.412,-5.346l-1.266,0a12.81,12.81 0 0 0 -12.161,8.782l-27.534,83.09l-27.662,-83.107a12.813,12.813 0 0 0 -12.156,-8.765l-0.822,0l-0.153,0.003c-0.053,0 -0.105,-0.003 -0.155,-0.003l-0.998,0a12.813,12.813 0 0 0 -12.163,8.782l-27.533,83.09l-27.661,-83.107a12.813,12.813 0 0 0 -12.156,-8.765l-1.268,0c-4.13,0 -8.007,1.991 -10.414,5.346a12.815,12.815 0 0 0 -1.72,11.579l40.125,118.344a12.81,12.81 0 0 0 12.135,8.698l0.53,0c0.153,0 0.303,-0.008 0.455,-0.014c0.151,0.006 0.302,0.014 0.454,0.014l0.354,0c5.5,0 10.386,-3.511 12.142,-8.721l27.845,-82.675l27.718,82.657a12.813,12.813 0 0 0 12.148,8.739l0.527,0c0.153,0 0.303,-0.008 0.456,-0.014c0.15,0.006 0.302,0.014 0.454,0.014l0.355,0c5.491,0 10.37,-3.497 12.134,-8.698l40.125,-118.344a12.822,12.822 0 0 0 -1.723,-11.579zm118.468,101.433a12.813,12.813 0 0 0 -17.01,-0.378c-8.521,7.234 -19.511,11.218 -30.943,11.218c-26.069,0 -47.277,-20.51 -47.277,-45.721c0,-25.116 21.208,-45.548 47.277,-45.548c11.542,0 22.522,3.916 30.921,11.027a12.812,12.812 0 0 0 17.339,-0.719l0.427,-0.427a12.807,12.807 0 0 0 -0.84,-18.886c-13.371,-11.184 -30.366,-17.344 -47.848,-17.344c-40.598,0 -73.628,32.253 -73.628,71.898c0,39.739 33.03,72.07 73.628,72.07c17.454,0 34.493,-6.207 47.979,-17.48a12.804,12.804 0 0 0 4.589,-9.494a12.809,12.809 0 0 0 -4.087,-9.723l-0.527,-0.493z"/>
   <path fill="#00007f" id="svg_3" d="m511.001,111l-231.002,0c-45.214,0 -81.999,36.784 -81.999,81.998l0,230.993c0,45.22 36.785,82.009 81.999,82.009l231.002,0c45.215,0 81.999,-36.789 81.999,-82.009l0,-230.993c0,-45.214 -36.784,-81.998 -81.999,-81.998zm66.999,312.991c0,36.949 -30.055,67.009 -66.999,67.009l-231.002,0c-36.943,0 -66.999,-30.06 -66.999,-67.009l0,-230.993c0,-36.943 30.056,-66.998 66.999,-66.998l231.002,0c36.944,0 66.999,30.055 66.999,66.998l0,230.993z"/>
  </g>
  <g stroke-width="0" filter="url(#svg_4_blur)" id="svg_4">
   <path fill="#00007f" id="svg_5" d="m427.412,241.862a12.814,12.814 0 0 0 -10.412,-5.346l-1.266,0a12.81,12.81 0 0 0 -12.161,8.782l-27.534,83.09l-27.662,-83.107a12.813,12.813 0 0 0 -12.156,-8.765l-0.822,0l-0.153,0.003c-0.053,0 -0.105,-0.003 -0.155,-0.003l-0.998,0a12.813,12.813 0 0 0 -12.163,8.782l-27.533,83.09l-27.661,-83.107a12.813,12.813 0 0 0 -12.156,-8.765l-1.268,0c-4.13,0 -8.007,1.991 -10.414,5.346a12.815,12.815 0 0 0 -1.72,11.579l40.125,118.344a12.81,12.81 0 0 0 12.135,8.698l0.53,0c0.153,0 0.303,-0.008 0.455,-0.014c0.151,0.006 0.302,0.014 0.454,0.014l0.354,0c5.5,0 10.386,-3.511 12.142,-8.721l27.845,-82.675l27.718,82.657a12.813,12.813 0 0 0 12.148,8.739l0.527,0c0.153,0 0.303,-0.008 0.456,-0.014c0.15,0.006 0.302,0.014 0.454,0.014l0.355,0c5.491,0 10.37,-3.497 12.134,-8.698l40.125,-118.344a12.822,12.822 0 0 0 -1.723,-11.579zm118.468,101.433a12.813,12.813 0 0 0 -17.01,-0.378c-8.521,7.234 -19.511,11.218 -30.943,11.218c-26.069,0 -47.277,-20.51 -47.277,-45.721c0,-25.116 21.208,-45.548 47.277,-45.548c11.542,0 22.522,3.916 30.921,11.027a12.812,12.812 0 0 0 17.339,-0.719l0.427,-0.427a12.807,12.807 0 0 0 -0.84,-18.886c-13.371,-11.184 -30.366,-17.344 -47.848,-17.344c-40.598,0 -73.628,32.253 -73.628,71.898c0,39.739 33.03,72.07 73.628,72.07c17.454,0 34.493,-6.207 47.979,-17.48a12.804,12.804 0 0 0 4.589,-9.494a12.809,12.809 0 0 0 -4.087,-9.723l-0.527,-0.493z"/>
   <path fill="#00007f" id="svg_6" d="m511.001,111l-231.002,0c-45.214,0 -81.999,36.784 -81.999,81.998l0,230.993c0,45.22 36.785,82.009 81.999,82.009l231.002,0c45.215,0 81.999,-36.789 81.999,-82.009l0,-230.993c0,-45.214 -36.784,-81.998 -81.999,-81.998zm66.999,312.991c0,36.949 -30.055,67.009 -66.999,67.009l-231.002,0c-36.943,0 -66.999,-30.06 -66.999,-67.009l0,-230.993c0,-36.943 30.056,-66.998 66.999,-66.998l231.002,0c36.944,0 66.999,30.055 66.999,66.998l0,230.993z"/>
  </g>
 </g>
 <defs>
  <filter id="svg_4_blur">
   <feGaussianBlur stdDeviation="0" in="SourceGraphic"/>
  </filter>
 </defs>
</svg>